<svg width="16" height="25" viewBox="0 0 16 25" fill="none" xmlns="http://www.w3.org/2000/svg">
<path d="M4.01195 23.8575L15.5219 12.3475C15.6105 12.254 15.6599 12.1302 15.6599 12.0015C15.6599 11.8727 15.6105 11.7489 15.5219 11.6554L4.01195 0.14345C3.96653 0.0979745 3.9126 0.0618981 3.85323 0.0372838C3.79386 0.0126694 3.73022 0 3.66595 0C3.60168 0 3.53804 0.0126694 3.47867 0.0372838C3.4193 0.0618981 3.36537 0.0979745 3.31995 0.14345L0.14295 3.32045C0.051413 3.41213 0 3.53639 0 3.66595C0 3.79551 0.051413 3.91977 0.14295 4.01145L8.13295 12.0015L0.14295 19.9914C0.0543994 20.0849 0.00504303 20.2087 0.00504303 20.3375C0.00504303 20.4662 0.0543994 20.59 0.14295 20.6835L3.31795 23.8584C3.36347 23.9041 3.41755 23.9403 3.4771 23.965C3.53664 23.9898 3.60048 24.0025 3.66495 24.0025C3.72942 24.0025 3.79326 23.9898 3.8528 23.965C3.91235 23.9403 3.96643 23.9041 4.01195 23.8584V23.8575Z" fill="#2B3016"/>
</svg>
