<svg width="25" height="23" viewBox="0 0 25 23" fill="none" xmlns="http://www.w3.org/2000/svg">
<path d="M12.5802 22.6694C12.2755 22.6694 11.9851 22.5525 11.764 22.34C11.748 22.3247 9.8456 20.485 2.1614 12.8008L2.10782 12.7472C2.02881 12.669 1.99005 12.6239 1.9513 12.5785C0.696465 11.2219 0 9.45773 0 7.62185C0 3.60149 3.27105 0.330444 7.29141 0.330444C9.26461 0.330444 11.1388 1.12475 12.4997 2.52351C13.8609 1.12468 15.7355 0.330444 17.7087 0.330444C21.729 0.330444 25.0001 3.60149 25.0001 7.62185C25.0001 9.63648 24.1929 11.5107 22.7264 12.9029C22.7049 12.9279 22.6853 12.9479 22.6709 12.962C14.9247 20.708 13.4555 22.2789 13.4414 22.2938C13.2258 22.5243 12.9234 22.6608 12.6103 22.6687L12.5802 22.6694ZM7.2918 1.1134C3.70266 1.1134 0.782958 4.0331 0.782958 7.62224C0.782958 9.26048 1.40585 10.8362 2.53668 12.0593C2.57504 12.1035 2.60238 12.1356 2.66035 12.1931L2.71511 12.2478C10.3969 19.9297 12.2895 21.7597 12.3063 21.7761C12.3803 21.8473 12.4766 21.8865 12.5775 21.8873L12.594 21.8869C12.696 21.8841 12.7978 21.8383 12.8698 21.7613C12.8812 21.7488 14.3626 20.1653 22.1164 12.4115L22.1727 12.3508C23.4917 11.1069 24.2183 9.42763 24.2183 7.62263C24.2183 4.03349 21.2986 1.11379 17.7095 1.11379C15.8169 1.11379 14.0264 1.93196 12.797 3.35893L12.5004 3.70286L12.2038 3.35853C10.9749 1.93157 9.18474 1.1134 7.2918 1.1134Z" fill="#1E8CB0"/>
</svg>
